<?xml version="1.0" encoding="UTF-8" standalone="no"?>
<!-- Created with Inkscape (http://www.inkscape.org/) -->

<svg
   width="195.10268mm"
   height="156.68359mm"
   viewBox="0 0 195.10268 156.68359"
   version="1.1"
   id="svg1"
   inkscape:version="1.4.2 (ebf0e940d0, 2025-05-08)"
   sodipodi:docname="flowstt-icon.svg"
   xml:space="preserve"
   xmlns:inkscape="http://www.inkscape.org/namespaces/inkscape"
   xmlns:sodipodi="http://sodipodi.sourceforge.net/DTD/sodipodi-0.dtd"
   xmlns:xlink="http://www.w3.org/1999/xlink"
   xmlns="http://www.w3.org/2000/svg"
   xmlns:svg="http://www.w3.org/2000/svg"><sodipodi:namedview
     id="namedview1"
     pagecolor="#000000"
     bordercolor="#767676"
     borderopacity="0.24705882"
     inkscape:showpageshadow="2"
     inkscape:pageopacity="0.0"
     inkscape:pagecheckerboard="0"
     inkscape:deskcolor="#2a2a2a"
     inkscape:document-units="mm"
     showgrid="true"
     inkscape:zoom="0.88179925"
     inkscape:cx="57.836293"
     inkscape:cy="409.39023"
     inkscape:window-width="3046"
     inkscape:window-height="1664"
     inkscape:window-x="0"
     inkscape:window-y="0"
     inkscape:window-maximized="1"
     inkscape:current-layer="layer2"><inkscape:grid
       id="grid1"
       units="mm"
       originx="-348.36264"
       originy="-95.380859"
       spacingx="0.99999998"
       spacingy="1"
       empcolor="#0099e5"
       empopacity="0.30196078"
       color="#0099e5"
       opacity="0.14901961"
       empspacing="5"
       enabled="true"
       visible="true" /></sodipodi:namedview><defs
     id="defs1"><linearGradient
       id="linearGradient14"
       inkscape:collect="always"><stop
         style="stop-color:#bbbbbb;stop-opacity:1;"
         offset="0"
         id="stop14" /><stop
         style="stop-color:#bbbbbb;stop-opacity:0;"
         offset="1"
         id="stop15" /></linearGradient><linearGradient
       id="linearGradient10"><stop
         style="stop-color:#a11010;stop-opacity:1;"
         offset="0.18969926"
         id="stop9" /><stop
         style="stop-color:#cec81c;stop-opacity:1;"
         offset="0.63229883"
         id="stop10" /></linearGradient><linearGradient
       id="linearGradient4"><stop
         style="stop-color:#b5b5b5;stop-opacity:1;"
         offset="0.26353809"
         id="stop7" /><stop
         style="stop-color:#1330a9;stop-opacity:1;"
         offset="0.63150686"
         id="stop8" /></linearGradient><inkscape:path-effect
       effect="taper_stroke"
       start_shape="center"
       end_shape="center"
       id="path-effect9"
       is_visible="true"
       lpeversion="1"
       stroke_width="6.4459901"
       subpath="1"
       attach_start="1.1950066"
       end_offset="0.7392974"
       start_smoothing="0.5"
       end_smoothing="0.5"
       jointype="extrapolated"
       miter_limit="100" /><inkscape:path-effect
       effect="taper_stroke"
       start_shape="center"
       end_shape="center"
       id="path-effect9-4"
       is_visible="true"
       lpeversion="1"
       stroke_width="6.4459901"
       subpath="1"
       attach_start="1.1950066"
       end_offset="0.52086481"
       start_smoothing="0.5"
       end_smoothing="0.5"
       jointype="extrapolated"
       miter_limit="100" /><inkscape:path-effect
       effect="taper_stroke"
       start_shape="center"
       end_shape="center"
       id="path-effect9-0"
       is_visible="true"
       lpeversion="1"
       stroke_width="6.4459901"
       subpath="1"
       attach_start="1.1950066"
       end_offset="0.7392974"
       start_smoothing="0.5"
       end_smoothing="0.5"
       jointype="extrapolated"
       miter_limit="100" /><inkscape:path-effect
       effect="taper_stroke"
       start_shape="center"
       end_shape="center"
       id="path-effect9-1"
       is_visible="true"
       lpeversion="1"
       stroke_width="6.4459901"
       subpath="1"
       attach_start="1.1950066"
       end_offset="0.7392974"
       start_smoothing="0.5"
       end_smoothing="0.5"
       jointype="extrapolated"
       miter_limit="100" /><inkscape:path-effect
       effect="taper_stroke"
       start_shape="center"
       end_shape="center"
       id="path-effect9-5"
       is_visible="true"
       lpeversion="1"
       stroke_width="6.4459901"
       subpath="1"
       attach_start="1.1950066"
       end_offset="0.7392974"
       start_smoothing="0.5"
       end_smoothing="0.5"
       jointype="extrapolated"
       miter_limit="100" /><linearGradient
       inkscape:collect="always"
       xlink:href="#linearGradient10"
       id="linearGradient7"
       x1="540.92609"
       y1="48.872143"
       x2="666.33551"
       y2="198.32933"
       gradientUnits="userSpaceOnUse"
       gradientTransform="translate(-157.71688,50.121889)" /><linearGradient
       inkscape:collect="always"
       xlink:href="#linearGradient14"
       id="linearGradient15"
       x1="790.63727"
       y1="242.20213"
       x2="1048.8027"
       y2="242.20213"
       gradientUnits="userSpaceOnUse" /><linearGradient
       id="linearGradient9"><stop
         style="stop-color:#129df5;stop-opacity:1;"
         offset="0"
         id="stop9-7" /><stop
         style="stop-color:#8544ec;stop-opacity:1;"
         offset="1"
         id="stop10-5" /></linearGradient><linearGradient
       xlink:href="#linearGradient9"
       id="linearGradient10-6"
       x1="828.6615"
       y1="385.00339"
       x2="1251.6154"
       y2="765.8327"
       gradientUnits="userSpaceOnUse"
       gradientTransform="translate(-69.655155,-298.26697)" /></defs><g
     inkscape:groupmode="layer"
     id="layer2"
     inkscape:label="Layer 2"
     style="opacity:1"
     transform="translate(-348.36264,-95.380863)"><path
       id="path9-3"
       style="baseline-shift:baseline;display:inline;overflow:visible;opacity:1;vector-effect:none;fill:url(#linearGradient7);fill-opacity:1;stroke:none;stroke-linecap:round;enable-background:accumulate;stop-color:#000000;stop-opacity:1"
       inkscape:label="path9-3"
       d="m 393.1537,95.380863 c -16.58612,0 -30.03899,13.452887 -30.03899,30.038997 v 51.61752 c 0,16.58612 13.45287,30.03899 30.03899,30.03899 16.58612,0 30.04106,-13.45287 30.04106,-30.03899 v -51.61752 c 0,-16.58611 -13.45494,-30.038997 -30.04106,-30.038997 z m -0.69918,9.011857 c 1.73993,-0.0489 3.4863,0.11427 5.1847,0.49661 5.11142,1.09738 9.84497,4.2343 12.81317,8.60206 2.09842,3.09541 3.53161,6.70254 3.55999,10.47481 0.009,0.5222 0.0183,1.04462 0.0269,1.56683 -3.30144,0.004 -6.60479,-0.0368 -9.90224,0.0388 -2.65264,0.3362 -4.22634,3.4539 -3.39049,5.88801 0.53476,1.96502 2.58843,3.36212 4.61729,3.07475 2.92719,-0.0129 5.85746,0.0205 8.785,0.002 0.0128,1.54362 0.0227,3.08707 0.0305,4.63073 -3.3487,0.006 -6.69971,-0.0376 -10.04434,0.0398 -2.65175,0.34065 -4.2243,3.45546 -3.38843,5.88956 0.5377,1.96308 2.5872,3.36317 4.61729,3.07475 2.94495,-0.0132 5.89295,0.0208 8.83822,0.002 5.9e-4,1.5437 -3e-4,3.08753 -0.002,4.63124 -3.35497,0.006 -6.71198,-0.0375 -10.06296,0.0393 -2.65194,0.33764 -4.22652,3.45572 -3.39049,5.89008 0.5319,1.93231 2.53632,3.34208 4.54443,3.07423 2.9624,-0.0143 5.92865,0.022 8.89145,0.002 -0.004,1.54365 -0.007,3.0871 -0.0109,4.63073 -3.34545,0.006 -6.69307,-0.0367 -10.03453,0.0398 -2.65238,0.33666 -4.22781,3.45548 -3.39049,5.88956 0.53476,1.96502 2.58843,3.36212 4.61729,3.07475 2.93083,-0.0129 5.86468,0.0206 8.79585,0.002 -2e-5,0.27618 -7e-5,0.55218 0,0.82837 0.14442,3.63304 -0.68782,7.22319 -2.34198,10.41797 -2.60186,5.1102 -7.38839,9.03655 -12.91756,10.56421 -3.59297,1.04163 -7.57343,1.0576 -11.1156,0.11937 -8.14481,-2.08606 -14.73438,-9.5158 -15.46882,-17.94309 -0.025,-1.33034 -0.0472,-2.66054 -0.0667,-3.99097 3.24812,0.006 6.49837,0.0369 9.741,-0.0512 2.69275,-0.39222 4.20311,-3.61958 3.26492,-6.06009 -0.58918,-1.76703 -2.40015,-3.08838 -4.28914,-2.89285 -2.9362,0.012 -5.87476,-0.0147 -8.81135,-0.002 -0.0106,-1.54381 -0.0189,-3.08788 -0.0248,-4.63176 3.28786,0.006 6.57803,0.0386 9.86038,-0.0506 2.69143,-0.39315 4.20677,-3.62207 3.26285,-6.06216 -0.5856,-1.76689 -2.40168,-3.08481 -4.28707,-2.89027 -2.94922,0.0123 -5.90102,-0.0152 -8.85062,-0.002 2.9e-4,-1.54388 0.002,-3.08786 0.004,-4.63175 3.29147,0.006 6.58527,0.0382 9.87123,-0.0512 2.69216,-0.39246 4.20642,-3.62173 3.26285,-6.06165 -0.58548,-1.76652 -2.40205,-3.08494 -4.28707,-2.89078 -2.94296,0.0122 -5.88867,-0.015 -8.83202,-0.002 0.003,-1.54386 0.005,-3.08794 0.006,-4.63176 3.28448,0.006 6.57106,0.0384 9.85004,-0.0506 2.69074,-0.39202 4.20372,-3.61667 3.26492,-6.05648 -0.58587,-1.76848 -2.40125,-3.08929 -4.28914,-2.8944 -2.94338,0.012 -5.88929,-0.0149 -8.83305,-0.002 0.0168,-1.03284 0.0741,-2.06204 0.22582,-3.08663 0.79314,-5.90965 4.25937,-11.38562 9.28522,-14.60066 3.27589,-2.10985 6.91852,-3.32356 10.81071,-3.44888 z m 151.01094,5.83943 -3.87677,0.01 c -13.37949,0.0361 -38.67618,-0.22018 -47.5821,0.12713 -3.69929,0.14427 -12.87125,0.95064 -20.95325,7.39438 -2.40247,1.91549 -13.18569,8.77048 -15.21871,22.81824 -1.13438,7.83829 -1.70151,16.78236 -2.18694,25.77362 1.18089,-12.64498 15.06056,-19.9108 27.09989,-20.43107 0,0 1.23508,-2.46189 2.25697,-3.94212 1.89732,-2.74831 4.57962,-4.67656 8.87078,-5.12682 13.93235,-1.4619 24.8047,1.51276 37.37498,-3.24218 6.64957,-2.51533 11.55326,-8.82079 13.51803,-19.56831 z m -21.40955,40.80061 c -1.22715,0.006 -2.45427,0.0107 -3.68143,0.014 -13.19672,0.0356 -29.16316,-0.0686 -37.80182,0.2682 -4.38532,0.17102 -11.15223,2.57574 -17.2129,8.25996 -3.39044,3.17984 -5.5194,7.25369 -7.06314,11.7352 -2.49105,7.30661 -3.31022,15.21014 -4.23747,21.58421 -0.57341,3.87266 -1.12583,7.16683 -1.69808,10.1167 -0.90995,2.37426 -1.7284,4.65965 -2.67374,6.76806 -1.64782,3.66502 -3.66925,6.94846 -6.21668,9.60871 -3.63637,3.86485 -8.38049,6.53497 -12.78526,8.3814 -13.53175,5.65329 -24.2099,5.83066 -24.2099,5.83066 0,0 2.56038,0.17313 7.03368,0.0739 4.24701,-0.0942 11.10011,-0.49519 18.33997,-2.56728 4.92382,-1.40563 10.43868,-3.82195 15.17892,-8.02638 3.28565,-2.95948 5.96069,-6.63546 8.03,-10.72648 1.72345,-3.39857 3.00222,-6.87654 4.44469,-10.0614 1.01246,-2.2429 1.93496,-4.47733 2.85667,-6.68125 1.79003,-4.27917 3.41966,-7.79932 5.64358,-10.58902 2.22393,-2.7897 5.01743,-4.9776 9.69915,-6.72052 3.55243,-1.32249 8.93385,-1.2375 14.67404,-1.14618 5.56082,0.0885 12.07723,0.0965 17.35605,-2.50734 5.56809,-2.74656 11.772,-8.58787 13.82138,-19.79828 0.23088,-1.26295 0.39849,-2.53714 0.50229,-3.81682 z m -170.47073,10.11773 c -1.77974,1.9e-4 -3.22235,1.4428 -3.22254,3.22254 v 13.35526 c 0,23.50757 18.38033,42.68161 41.56852,43.94926 v 23.94169 h -21.88083 c -1.77975,1.8e-4 -3.22287,1.44279 -3.22306,3.22254 1.8e-4,1.77975 1.44331,3.22236 3.22306,3.22254 h 50.20882 c 1.77975,-1.8e-4 3.22236,-1.44279 3.22254,-3.22254 -1.9e-4,-1.77975 -1.44279,-3.22236 -3.22254,-3.22254 h -21.88084 v -23.94169 c 23.1882,-1.26765 41.56853,-20.44169 41.56853,-43.94926 v -13.35526 c -1.9e-4,-1.77974 -1.44332,-3.22235 -3.22306,-3.22254 -1.78051,-8.9e-4 -3.22442,1.44203 -3.22461,3.22254 v 13.35526 c 0,20.86923 -16.69904,37.57032 -37.56825,37.57032 h -1.55288 c -20.86922,0 -37.57032,-16.70109 -37.57032,-37.57032 v -13.35526 c -1.9e-4,-1.77974 -1.4428,-3.22235 -3.22254,-3.22254 z m 128.26091,20.57704 c -1.85178,0.24954 -3.6567,0.85008 -5.30769,1.74408 -0.47885,0.2237 -0.93953,0.47649 -1.38234,0.75499 -5.53757,4.76076 -8.18459,12.66247 -11.46334,20.74619 -3.60445,8.8867 -9.63617,16.86852 -16.58198,23.51778 4.31326,-1.91271 8.19928,-4.05398 11.6613,-6.33037 11.71649,-7.704 18.63318,-16.78436 20.83026,-24.43933 1.2161,-4.23707 1.88623,-9.47849 2.24379,-15.99334 z"
       sodipodi:nodetypes="sssssssccccccccccccccccccccccccccccccccccccccccccccccccccccccssscccssccccsscccccccscccccsscssccccccccccccccscccsssscccccscsscsc" /></g></svg>
