<?xml version="1.0" encoding="UTF-8" standalone="no"?>
<!-- Created with Inkscape (http://www.inkscape.org/) -->

<svg
   width="1647.6344"
   height="380.12305"
   viewBox="0 0 435.93661 100.57422"
   version="1.1"
   id="svg1"
   xml:space="preserve"
   xmlns:xlink="http://www.w3.org/1999/xlink"
   xmlns="http://www.w3.org/2000/svg"
   xmlns:svg="http://www.w3.org/2000/svg"><defs
     id="defs1"><linearGradient
       id="linearGradient10"><stop
         style="stop-color:#a11010;stop-opacity:1;"
         offset="0.18969926"
         id="stop9" /><stop
         style="stop-color:#cec81c;stop-opacity:1;"
         offset="0.63229883"
         id="stop10" /></linearGradient><linearGradient
       xlink:href="#linearGradient10"
       id="linearGradient7"
       x1="540.92609"
       y1="48.872143"
       x2="666.33551"
       y2="198.32933"
       gradientUnits="userSpaceOnUse"
       gradientTransform="matrix(0.64189432,0,0,0.64189432,34.914953,91.833583)" /></defs><g
     id="layer2"
     style="opacity:1"
     transform="translate(-359.76452,-120.88506)"><path
       id="path9-3"
       style="baseline-shift:baseline;display:inline;overflow:visible;opacity:1;vector-effect:none;fill:url(#linearGradient7);fill-opacity:1;stroke:none;stroke-width:0.641894;stroke-linecap:round;enable-background:accumulate;stop-color:#000000;stop-opacity:1"
       d="m 388.51565,120.88506 c -10.64654,0 -19.28186,8.63533 -19.28186,19.28186 v 33.133 c 0,10.64653 8.63532,19.28185 19.28186,19.28185 10.64653,0 19.28318,-8.63532 19.28318,-19.28185 v -33.133 c 0,-10.64653 -8.63665,-19.28186 -19.28318,-19.28186 z m -0.4488,5.78466 c 1.11685,-0.0314 2.23783,0.0734 3.32803,0.31877 3.28099,0.7044 6.31943,2.71798 8.2247,5.52162 1.34696,1.98692 2.26692,4.30232 2.28514,6.72372 0.006,0.33519 0.0117,0.67053 0.0173,1.00574 -2.11917,0.003 -4.23958,-0.0236 -6.35619,0.0249 -1.70271,0.21581 -2.71286,2.21704 -2.17634,3.77948 0.34326,1.26134 1.6615,2.15813 2.96382,1.97367 1.87894,-0.008 3.75987,0.0132 5.63904,0.001 0.008,0.99084 0.0146,1.98157 0.0196,2.97244 -2.14952,0.004 -4.30051,-0.0241 -6.44741,0.0255 -1.70214,0.21866 -2.71155,2.21804 -2.17501,3.78047 0.34514,1.26009 1.66071,2.1588 2.96381,1.97367 1.89035,-0.008 3.78265,0.0134 5.6732,0.001 3.8e-4,0.99089 -1.9e-4,1.98187 -0.001,2.97277 -2.15354,0.004 -4.30838,-0.0241 -6.45936,0.0252 -1.70226,0.21673 -2.71298,2.21821 -2.17633,3.78081 0.34142,1.24034 1.62804,2.14526 2.91704,1.97333 1.90155,-0.009 3.80557,0.0141 5.70737,0.001 -0.003,0.99086 -0.004,1.98159 -0.007,2.97244 -2.14742,0.004 -4.29624,-0.0236 -6.4411,0.0255 -1.70255,0.2161 -2.71381,2.21806 -2.17634,3.78048 0.34326,1.26133 1.6615,2.15812 2.96381,1.97366 1.88129,-0.008 3.76451,0.0132 5.64601,0.001 -10e-6,0.17728 -5e-5,0.35444 0,0.53172 0.0927,2.33203 -0.44151,4.63653 -1.50331,6.68724 -1.67011,3.28021 -4.74256,5.80051 -8.2917,6.78111 -2.30631,0.66861 -4.86135,0.67886 -7.13504,0.0766 -5.22811,-1.33903 -9.45792,-6.10814 -9.92935,-11.51757 -0.0161,-0.85394 -0.0303,-1.70778 -0.0428,-2.56178 2.08495,0.004 4.17127,0.0237 6.2527,-0.0329 1.72846,-0.25176 2.69795,-2.32338 2.09573,-3.88993 -0.37819,-1.13425 -1.54064,-1.98242 -2.75317,-1.85691 -1.88473,0.008 -3.77098,-0.009 -5.65596,-0.001 -0.007,-0.99096 -0.0121,-1.98209 -0.0159,-2.9731 2.11046,0.004 4.2224,0.0248 6.32932,-0.0325 1.72762,-0.25236 2.7003,-2.32499 2.09441,-3.89127 -0.3759,-1.13415 -1.54163,-1.98012 -2.75185,-1.85524 -1.89309,0.008 -3.78783,-0.01 -5.68116,-0.001 1.9e-4,-0.99101 0.001,-1.98208 0.003,-2.97309 2.11277,0.004 4.22704,0.0245 6.33628,-0.0329 1.72809,-0.25192 2.70008,-2.32477 2.09441,-3.89094 -0.37582,-1.13392 -1.54186,-1.9802 -2.75185,-1.85557 -1.88907,0.008 -3.7799,-0.01 -5.66922,-10e-4 0.002,-0.991 0.003,-1.98214 0.004,-2.97311 2.10829,0.004 4.21793,0.0246 6.32268,-0.0325 1.72718,-0.25163 2.69835,-2.32152 2.09574,-3.88762 -0.37607,-1.13517 -1.54135,-1.98299 -2.75318,-1.85789 -1.88934,0.008 -3.7803,-0.01 -5.66988,-0.001 0.0108,-0.66297 0.0476,-1.32361 0.14495,-1.98129 0.50911,-3.79337 2.73407,-7.30836 5.96013,-9.37208 2.10278,-1.3543 4.44096,-2.13337 6.93933,-2.21382 z m 96.93306,3.7483 -2.48848,0.006 c -8.58821,0.0232 -24.82602,-0.14133 -30.54267,0.0816 -2.37456,0.0926 -8.26199,0.61021 -13.44978,4.74641 -1.54213,1.22954 -8.46382,5.62972 -9.7688,14.6469 -0.72815,5.03135 -1.09219,10.7725 -1.40378,16.54394 0.758,-8.11674 9.66728,-12.78063 17.39526,-13.11459 0,0 0.79279,-1.58027 1.44874,-2.53042 1.21788,-1.76413 2.93963,-3.00186 5.6941,-3.29088 8.9431,-0.93838 15.922,0.97103 23.99079,-2.08113 4.26832,-1.61458 7.41597,-5.66202 8.67714,-12.56079 z m -13.74267,26.18968 c -0.7877,0.004 -1.57538,0.007 -2.36309,0.009 -8.4709,0.0229 -18.71966,-0.044 -24.26477,0.17216 -2.81491,0.10978 -7.15855,1.65335 -11.04886,5.30202 -2.17631,2.04112 -3.54287,4.6561 -4.53379,7.53276 -1.59899,4.69007 -2.12481,9.7633 -2.72001,13.85478 -0.36807,2.48584 -0.72266,4.60035 -1.08999,6.49385 -0.58409,1.52403 -1.10945,2.99101 -1.71626,4.34438 -1.05772,2.35256 -2.35527,4.46018 -3.99045,6.16778 -2.33416,2.48083 -5.37939,4.19476 -8.20678,5.37997 -8.68596,3.62882 -15.5402,3.74267 -15.5402,3.74267 0,0 1.64349,0.11113 4.51488,0.0474 2.72613,-0.0605 7.1251,-0.31786 11.77232,-1.64793 3.16057,-0.90226 6.70053,-2.45328 9.74326,-5.15208 2.10904,-1.89968 3.82614,-4.25927 5.15442,-6.88527 1.10627,-2.18152 1.9271,-4.41401 2.85302,-6.45836 0.64989,-1.4397 1.24204,-2.87397 1.83368,-4.28865 1.14901,-2.74678 2.19506,-5.00634 3.62258,-6.79703 1.42753,-1.7907 3.22066,-3.1951 6.22583,-4.31387 2.28028,-0.8489 5.73459,-0.79434 9.41918,-0.73572 3.56946,0.0568 7.75231,0.0619 11.14075,-1.60945 3.57413,-1.763 7.55638,-5.51251 8.87187,-12.7084 0.1482,-0.81068 0.25578,-1.62858 0.32241,-2.45 z m -109.42419,6.49451 c -1.1424,1.2e-4 -2.06841,0.92613 -2.06853,2.06853 v 8.57267 c 0,15.08937 11.79823,27.39708 26.6826,28.21078 v 15.36803 h -14.04518 c -1.14242,1.2e-4 -2.06875,0.92612 -2.06887,2.06853 1.2e-4,1.14241 0.92645,2.06842 2.06887,2.06853 h 32.22875 c 1.14241,-1.1e-4 2.06842,-0.92612 2.06853,-2.06853 -1.2e-4,-1.14241 -0.92612,-2.06841 -2.06853,-2.06853 h -14.04518 v -15.36803 c 14.88437,-0.8137 26.6826,-13.12141 26.6826,-28.21078 v -8.57267 c -1.2e-4,-1.1424 -0.92646,-2.06841 -2.06887,-2.06853 -1.14289,-5.7e-4 -2.06973,0.92563 -2.06985,2.06853 v 8.57267 c 0,13.39584 -10.71902,24.11617 -24.11485,24.11617 h -0.99678 c -13.39584,0 -24.11618,-10.72033 -24.11618,-24.11617 v -8.57267 c -1.2e-4,-1.1424 -0.92612,-2.06841 -2.06853,-2.06853 z M 444.163,176.3105 c -1.18865,0.16018 -2.34722,0.54566 -3.40698,1.11951 -0.30737,0.14359 -0.60308,0.30586 -0.88731,0.48463 -3.55454,3.0559 -5.25364,8.12796 -7.35826,13.31686 -2.31367,5.70432 -6.1854,10.8278 -10.64387,15.09593 2.76865,-1.22776 5.26307,-2.60223 7.48532,-4.06343 7.52075,-4.94516 11.96053,-10.77379 13.37082,-15.68747 0.78061,-2.71975 1.21076,-6.08419 1.44028,-10.26603 z" /><path
       style="font-size:50.8px;font-family:Michroma;-inkscape-font-specification:'Michroma, Normal';font-variation-settings:'wght' 700;fill:#f9f9f9;stroke-width:0.265"
       d="m 503.74996,192.29681 v -38.1 h 35.91718 v 3.96875 h -31.15468 v 12.7 h 29.74082 v 3.96875 h -29.74082 v 17.4625 z m 42.8625,0 v -38.1 h 4.7625 v 38.1 z m 29.39355,0.54571 q -4.78731,0 -8.13594,-0.4961 -3.34863,-0.47129 -5.40742,-1.95957 -2.05879,-1.51308 -3.00137,-4.51445 -0.94258,-3.00137 -0.94258,-8.01191 0,-4.86172 0.94258,-7.78868 0.94258,-2.92695 3.00137,-4.41523 2.05879,-1.48828 5.40742,-1.98437 3.34863,-0.4961 8.13594,-0.4961 4.81211,0 8.13594,0.4961 3.34863,0.49609 5.40742,1.98437 2.05879,1.48828 3.00137,4.41523 0.94257,2.92696 0.94257,7.78868 0,5.01054 -0.94257,8.01191 -0.94258,3.00137 -3.00137,4.51445 -2.05879,1.48828 -5.40742,1.95957 -3.32383,0.4961 -8.13594,0.4961 z m 12.7248,-14.98203 q 0,-3.54707 -0.37207,-5.68028 -0.34726,-2.1332 -1.56269,-3.1998 -1.21543,-1.09141 -3.79512,-1.46348 -2.55488,-0.37207 -6.99492,-0.37207 -4.41523,0 -6.99492,0.37207 -2.57969,0.37207 -3.79512,1.46348 -1.21543,1.0666 -1.5875,3.1998 -0.34727,2.13321 -0.34727,5.68028 0,3.67109 0.34727,5.87871 0.37207,2.20761 1.5875,3.32382 1.21543,1.09141 3.79512,1.46348 2.57969,0.34727 6.99492,0.34727 4.44004,0 6.99492,-0.34727 2.57969,-0.37207 3.79512,-1.46348 1.21543,-1.11621 1.56269,-3.32382 0.37207,-2.20762 0.37207,-5.87871 z m 18.25625,14.43632 -10.96367,-28.575 h 5.40742 l 8.70645,24.73028 h 0.0496 l 9.50019,-24.73028 h 4.7625 l 9.40098,24.73028 h 0.0496 l 8.80566,-24.73028 h 5.40742 l -10.96367,28.575 h -6.35 l -8.70644,-23.14277 h -0.0496 l -8.70645,23.14277 z m 88.18067,-11.01328 q 0,-2.20761 -0.34727,-3.47265 -0.34726,-1.26504 -1.56269,-1.86035 -1.21543,-0.62012 -3.77032,-0.79375 -2.55488,-0.19844 -6.99492,-0.27286 l -13.7914,-0.19843 q -5.10977,-0.0744 -8.21036,-0.62012 -3.10058,-0.5457 -4.68808,-1.71152 -1.5875,-1.19063 -2.1332,-3.175 -0.5209,-1.98438 -0.5209,-4.96094 0,-3.24942 0.71933,-5.35781 0.74414,-2.1084 2.6541,-3.29903 1.93477,-1.19062 5.45704,-1.66191 3.52226,-0.4961 9.10332,-0.4961 h 10.6164 q 5.06016,0 8.4336,0.32247 3.37343,0.32246 5.35781,1.48828 1.98437,1.16582 2.82773,3.62148 0.86817,2.45567 0.86817,6.74688 h -4.7625 q 0,-3.32383 -0.64493,-5.01055 -0.62011,-1.71152 -2.08359,-2.33164 -1.43867,-0.62012 -3.89434,-0.66973 -2.45566,-0.0496 -6.10195,-0.0496 h -10.36836 q -4.44004,0 -7.11894,0.17364 -2.6541,0.17363 -4.01836,0.79375 -1.36426,0.62011 -1.83555,1.98437 -0.44648,1.36426 -0.44648,3.74551 0,2.00918 0.32246,3.22461 0.32246,1.21543 1.43867,1.86035 1.14102,0.62012 3.49746,0.86816 2.35645,0.22325 6.42441,0.27285 l 14.7836,0.19844 q 5.20898,0.0744 8.30957,0.62012 3.12539,0.5209 4.66328,1.71152 1.56269,1.19063 2.05879,3.22461 0.5209,2.00918 0.5209,5.08496 0,3.34864 -0.64492,5.63067 -0.62012,2.25722 -2.43086,3.62148 -1.81075,1.36426 -5.23379,1.95957 -3.42305,0.59531 -9.0041,0.59531 h -11.6086 q -5.08496,0 -8.53281,-0.44648 -3.44785,-0.44648 -5.50664,-1.78594 -2.03399,-1.36426 -2.92695,-4.04316 -0.89297,-2.67891 -0.89297,-7.14375 h 4.7625 q 0,3.49746 0.5705,5.40742 0.57051,1.90996 1.98438,2.75332 1.43867,0.81855 3.99355,0.99219 2.57969,0.14883 6.54844,0.14883 h 11.36055 q 4.44004,0 7.01972,-0.27286 2.57969,-0.29765 3.81993,-1.0914 1.24023,-0.81856 1.5875,-2.33164 0.37207,-1.51309 0.37207,-3.99356 z m 29.19511,11.01328 v -34.13125 h -19.05 v -3.96875 h 42.8625 v 3.96875 h -19.05 v 34.13125 z m 47.52579,0 v -34.13125 h -19.05 v -3.96875 h 42.8625 v 3.96875 h -19.05 v 34.13125 z"
       id="text5"
       aria-label="FlowSTT" /></g></svg>
