<?xml version="1.0" encoding="UTF-8" standalone="no"?>
<!-- Created with Inkscape (http://www.inkscape.org/) -->

<svg
   width="936.59113"
   height="557.54803"
   viewBox="0 0 247.80641 147.51791"
   version="1.1"
   id="svg1"
   xml:space="preserve"
   xmlns:xlink="http://www.w3.org/1999/xlink"
   xmlns="http://www.w3.org/2000/svg"
   xmlns:svg="http://www.w3.org/2000/svg"><defs
     id="defs1"><linearGradient
       id="linearGradient10"><stop
         style="stop-color:#a11010;stop-opacity:1;"
         offset="0.18969926"
         id="stop9" /><stop
         style="stop-color:#cec81c;stop-opacity:1;"
         offset="0.63229883"
         id="stop10" /></linearGradient><linearGradient
       xlink:href="#linearGradient10"
       id="linearGradient7"
       x1="540.92609"
       y1="48.872143"
       x2="666.33551"
       y2="198.32933"
       gradientUnits="userSpaceOnUse"
       gradientTransform="matrix(0.64189432,0,0,0.64189432,245.03679,111.33679)" /></defs><g
     id="layer2"
     style="opacity:1"
     transform="translate(-501.64961,-140.38827)"><path
       id="path9-3"
       style="baseline-shift:baseline;display:inline;overflow:visible;opacity:1;vector-effect:none;fill:url(#linearGradient7);fill-opacity:1;stroke:none;stroke-width:0.641894;stroke-linecap:round;enable-background:accumulate;stop-color:#000000;stop-opacity:1"
       d="m 598.63749,140.38827 c -10.64654,0 -19.28186,8.63533 -19.28186,19.28186 v 33.133 c 0,10.64653 8.63532,19.28185 19.28186,19.28185 10.64653,0 19.28318,-8.63532 19.28318,-19.28185 v -33.133 c 0,-10.64653 -8.63665,-19.28186 -19.28318,-19.28186 z m -0.4488,5.78466 c 1.11685,-0.0314 2.23783,0.0734 3.32803,0.31877 3.28099,0.7044 6.31943,2.71798 8.2247,5.52162 1.34696,1.98692 2.26692,4.30232 2.28514,6.72372 0.006,0.33519 0.0117,0.67053 0.0173,1.00574 -2.11917,0.003 -4.23958,-0.0236 -6.35619,0.0249 -1.70271,0.21581 -2.71286,2.21704 -2.17634,3.77948 0.34326,1.26134 1.6615,2.15813 2.96382,1.97367 1.87894,-0.008 3.75987,0.0132 5.63904,0.001 0.008,0.99084 0.0146,1.98157 0.0196,2.97244 -2.14952,0.004 -4.30051,-0.0241 -6.44741,0.0255 -1.70214,0.21866 -2.71155,2.21804 -2.17501,3.78047 0.34514,1.26009 1.66071,2.1588 2.96381,1.97367 1.89035,-0.008 3.78265,0.0134 5.6732,0.001 3.8e-4,0.99089 -1.9e-4,1.98187 -10e-4,2.97277 -2.15354,0.004 -4.30838,-0.0241 -6.45936,0.0252 -1.70226,0.21673 -2.71298,2.21821 -2.17633,3.78081 0.34142,1.24034 1.62804,2.14526 2.91704,1.97333 1.90155,-0.009 3.80557,0.0141 5.70737,0.001 -0.003,0.99086 -0.004,1.98159 -0.007,2.97244 -2.14742,0.004 -4.29624,-0.0236 -6.4411,0.0255 -1.70255,0.2161 -2.71381,2.21806 -2.17634,3.78048 0.34326,1.26133 1.6615,2.15812 2.96381,1.97366 1.88129,-0.008 3.76451,0.0132 5.64601,0.001 -10e-6,0.17728 -5e-5,0.35444 0,0.53172 0.0927,2.33203 -0.44151,4.63653 -1.50331,6.68724 -1.67011,3.28021 -4.74256,5.80051 -8.2917,6.78111 -2.30631,0.66861 -4.86135,0.67886 -7.13504,0.0766 -5.22811,-1.33903 -9.45792,-6.10814 -9.92935,-11.51757 -0.0161,-0.85394 -0.0303,-1.70778 -0.0428,-2.56178 2.08495,0.004 4.17127,0.0237 6.2527,-0.0329 1.72846,-0.25176 2.69795,-2.32338 2.09573,-3.88993 -0.37819,-1.13425 -1.54064,-1.98242 -2.75317,-1.85691 -1.88473,0.008 -3.77098,-0.009 -5.65596,-0.001 -0.007,-0.99096 -0.0121,-1.98209 -0.0159,-2.9731 2.11046,0.004 4.2224,0.0248 6.32932,-0.0325 1.72762,-0.25236 2.7003,-2.32499 2.09441,-3.89127 -0.3759,-1.13415 -1.54163,-1.98012 -2.75185,-1.85524 -1.89309,0.008 -3.78783,-0.01 -5.68116,-10e-4 1.9e-4,-0.99101 10e-4,-1.98208 0.003,-2.97309 2.11277,0.004 4.22704,0.0245 6.33628,-0.0329 1.72809,-0.25192 2.70008,-2.32477 2.09441,-3.89094 -0.37582,-1.13392 -1.54186,-1.9802 -2.75185,-1.85557 -1.88907,0.008 -3.7799,-0.01 -5.66922,-0.001 0.002,-0.991 0.003,-1.98214 0.004,-2.97311 2.10829,0.004 4.21793,0.0246 6.32268,-0.0325 1.72718,-0.25163 2.69835,-2.32152 2.09574,-3.88762 -0.37607,-1.13517 -1.54135,-1.98299 -2.75318,-1.85789 -1.88934,0.008 -3.7803,-0.01 -5.66988,-0.001 0.0108,-0.66297 0.0476,-1.32361 0.14495,-1.98129 0.50911,-3.79337 2.73407,-7.30836 5.96013,-9.37208 2.10278,-1.3543 4.44096,-2.13337 6.93933,-2.21382 z m 96.93306,3.7483 -2.48848,0.006 c -8.58821,0.0232 -24.82602,-0.14133 -30.54267,0.0816 -2.37456,0.0926 -8.26199,0.61021 -13.44978,4.74641 -1.54213,1.22954 -8.46382,5.62972 -9.7688,14.6469 -0.72815,5.03135 -1.09219,10.7725 -1.40378,16.54394 0.758,-8.11674 9.66728,-12.78063 17.39526,-13.11459 0,0 0.79279,-1.58027 1.44874,-2.53042 1.21788,-1.76413 2.93963,-3.00186 5.6941,-3.29088 8.9431,-0.93838 15.922,0.97103 23.99079,-2.08113 4.26832,-1.61458 7.41597,-5.66202 8.67714,-12.56079 z m -13.74267,26.18968 c -0.7877,0.004 -1.57538,0.007 -2.36309,0.009 -8.4709,0.0229 -18.71966,-0.044 -24.26477,0.17216 -2.81491,0.10978 -7.15855,1.65335 -11.04886,5.30202 -2.17631,2.04112 -3.54287,4.6561 -4.53379,7.53276 -1.59899,4.69007 -2.12481,9.7633 -2.72001,13.85478 -0.36807,2.48584 -0.72266,4.60035 -1.08999,6.49385 -0.58409,1.52403 -1.10945,2.99101 -1.71626,4.34438 -1.05772,2.35256 -2.35527,4.46018 -3.99045,6.16778 -2.33416,2.48083 -5.37939,4.19476 -8.20678,5.37997 -8.68596,3.62882 -15.5402,3.74267 -15.5402,3.74267 0,0 1.64349,0.11113 4.51488,0.0474 2.72613,-0.0605 7.1251,-0.31786 11.77232,-1.64793 3.16057,-0.90226 6.70053,-2.45328 9.74326,-5.15208 2.10904,-1.89968 3.82614,-4.25927 5.15442,-6.88527 1.10627,-2.18152 1.9271,-4.41401 2.85302,-6.45836 0.64989,-1.4397 1.24204,-2.87397 1.83368,-4.28865 1.14901,-2.74678 2.19506,-5.00634 3.62258,-6.79703 1.42753,-1.7907 3.22066,-3.1951 6.22583,-4.31387 2.28028,-0.8489 5.73459,-0.79434 9.41918,-0.73572 3.56946,0.0568 7.75231,0.0619 11.14075,-1.60945 3.57413,-1.763 7.55638,-5.51251 8.87187,-12.7084 0.1482,-0.81068 0.25578,-1.62858 0.32241,-2.45 z m -109.42419,6.49451 c -1.1424,1.2e-4 -2.06841,0.92613 -2.06853,2.06853 v 8.57267 c 0,15.08937 11.79823,27.39708 26.6826,28.21078 v 15.36803 h -14.04518 c -1.14242,1.2e-4 -2.06875,0.92612 -2.06887,2.06853 1.2e-4,1.14241 0.92645,2.06842 2.06887,2.06853 h 32.22875 c 1.14241,-1.1e-4 2.06842,-0.92612 2.06853,-2.06853 -1.2e-4,-1.14241 -0.92612,-2.06841 -2.06853,-2.06853 H 600.70735 V 221.4574 c 14.88437,-0.8137 26.6826,-13.12141 26.6826,-28.21078 v -8.57267 c -1.2e-4,-1.1424 -0.92646,-2.06841 -2.06887,-2.06853 -1.14289,-5.7e-4 -2.06973,0.92563 -2.06985,2.06853 v 8.57267 c 0,13.39584 -10.71902,24.11617 -24.11485,24.11617 h -0.99678 c -13.39584,0 -24.11618,-10.72033 -24.11618,-24.11617 v -8.57267 c -1.2e-4,-1.1424 -0.92612,-2.06841 -2.06853,-2.06853 z m 82.32995,13.20829 c -1.18865,0.16018 -2.34722,0.54566 -3.40698,1.11951 -0.30737,0.14359 -0.60308,0.30586 -0.88731,0.48463 -3.55454,3.0559 -5.25364,8.12796 -7.35826,13.31686 -2.31367,5.70432 -6.1854,10.8278 -10.64387,15.09593 2.76865,-1.22776 5.26307,-2.60223 7.48532,-4.06343 7.52075,-4.94516 11.96053,-10.77379 13.37082,-15.68747 0.78061,-2.71975 1.21076,-6.08419 1.44028,-10.26603 z" /><path
       style="font-size:50.8px;font-family:Michroma;-inkscape-font-specification:'Michroma, Normal';font-variation-settings:'wght' 700;fill:#1b1b1b;fill-opacity:1;stroke-width:0.22493"
       d="m 501.64961,287.23244 v -32.33905 h 30.48629 v 3.36865 h -26.44391 v 10.77969 h 25.24383 v 3.36865 h -25.24383 v 14.82206 z m 36.38143,0 v -32.33905 h 4.04239 v 32.33905 z m 24.94907,0.4632 q -4.06344,0 -6.90573,-0.42109 -2.8423,-0.40003 -4.58979,-1.66327 -1.74749,-1.28429 -2.54754,-3.83184 -0.80006,-2.54754 -0.80006,-6.80046 0,-4.1266 0.80006,-6.61098 0.80005,-2.48438 2.54754,-3.74763 1.74749,-1.26324 4.58979,-1.68432 2.84229,-0.42108 6.90573,-0.42108 4.0845,0 6.90574,0.42108 2.8423,0.42108 4.58979,1.68432 1.74749,1.26325 2.54754,3.74763 0.80005,2.48438 0.80005,6.61098 0,4.25292 -0.80005,6.80046 -0.80005,2.54755 -2.54754,3.83184 -1.74749,1.26324 -4.58979,1.66327 -2.82124,0.42109 -6.90574,0.42109 z m 10.80074,-12.71666 q 0,-3.01073 -0.31581,-4.82139 -0.29475,-1.81064 -1.3264,-2.71597 -1.03165,-0.92638 -3.22128,-1.24219 -2.16857,-0.31581 -5.93725,-0.31581 -3.74762,0 -5.93724,0.31581 -2.18963,0.31581 -3.22128,1.24219 -1.03165,0.90533 -1.34746,2.71597 -0.29476,1.81066 -0.29476,4.82139 0,3.116 0.29476,4.98981 0.31581,1.87381 1.34746,2.82124 1.03165,0.92639 3.22128,1.2422 2.18962,0.29476 5.93724,0.29476 3.76868,0 5.93725,-0.29476 2.18963,-0.31581 3.22128,-1.2422 1.03165,-0.94743 1.3264,-2.82124 0.31581,-1.87381 0.31581,-4.98981 z m 15.4958,12.25346 -9.3059,-24.25429 h 4.58978 l 7.38999,20.99092 h 0.0421 l 8.0637,-20.99092 h 4.04238 l 7.9795,20.99092 h 0.0421 l 7.47419,-20.99092 h 4.58979 l -9.3059,24.25429 h -5.38984 L 602.09856,267.589 h -0.0421 l -7.38998,19.64344 z m 74.84722,-9.348 q 0,-1.87381 -0.29476,-2.94757 -0.29475,-1.07376 -1.3264,-1.57905 -1.03165,-0.52636 -3.20023,-0.67373 -2.16856,-0.16844 -5.93724,-0.2316 l -11.70606,-0.16843 q -4.33714,-0.0632 -6.9689,-0.52635 -2.63176,-0.46319 -3.97922,-1.45273 -1.34746,-1.0106 -1.81065,-2.69492 -0.44213,-1.68433 -0.44213,-4.21082 0,-2.75809 0.61056,-4.54768 0.63162,-1.78959 2.25278,-2.80019 1.64223,-1.0106 4.63191,-1.41062 2.98967,-0.42109 7.72684,-0.42109 h 9.01114 q 4.29503,0 7.15839,0.27371 2.86334,0.2737 4.54767,1.26324 1.68433,0.98954 2.40017,3.07389 0.73689,2.08436 0.73689,5.72672 h -4.04238 q 0,-2.82125 -0.54741,-4.25293 -0.52635,-1.45273 -1.76854,-1.97908 -1.22113,-0.52636 -3.30549,-0.56846 -2.08435,-0.0421 -5.1793,-0.0421 h -8.8006 q -3.76868,0 -6.04252,0.14738 -2.25278,0.14738 -3.41076,0.67373 -1.15797,0.52635 -1.558,1.68432 -0.37897,1.15798 -0.37897,3.17917 0,1.70538 0.2737,2.73703 0.2737,1.03165 1.22114,1.57905 0.96849,0.52636 2.96862,0.73689 2.00014,0.18949 5.453,0.23159 l 12.54823,0.16844 q 4.42135,0.0632 7.05311,0.52635 2.65282,0.44214 3.95817,1.45273 1.3264,1.0106 1.74749,2.73703 0.44213,1.70538 0.44213,4.31609 0,2.8423 -0.5474,4.77927 -0.52635,1.91592 -2.0633,3.0739 -1.53695,1.15797 -4.44241,1.66327 -2.90546,0.50529 -7.64263,0.50529 h -9.85331 q -4.31608,0 -7.24259,-0.37897 -2.92652,-0.37897 -4.67401,-1.51589 -1.72644,-1.15798 -2.48438,-3.43181 -0.75794,-2.27385 -0.75794,-6.06358 h 4.04238 q 0,2.96863 0.48424,4.58979 0.48424,1.62116 1.68433,2.337 1.22113,0.69478 3.3897,0.84217 2.18962,0.12632 5.55827,0.12632 h 9.64277 q 3.76868,0 5.9583,-0.2316 2.18962,-0.25264 3.24233,-0.92637 1.0527,-0.69479 1.34746,-1.97908 0.31581,-1.28431 0.31581,-3.38971 z m 24.78064,9.348 v -28.9704 h -16.16953 v -3.36865 h 36.38144 v 3.36865 h -16.16953 v 28.9704 z m 40.33961,0 v -28.9704 h -16.16953 v -3.36865 h 36.38143 v 3.36865 H 733.2865 v 28.9704 z"
       id="text5"
       aria-label="FlowSTT" /></g></svg>
